<?xml version="1.0" standalone="no"?>
<!DOCTYPE svg PUBLIC "-//W3C//DTD SVG 20010904//EN"
 "http://www.w3.org/TR/2001/REC-SVG-20010904/DTD/svg10.dtd">
<svg version="1.0" xmlns="http://www.w3.org/2000/svg"
 width="200.000000pt" height="200.000000pt" viewBox="0 0 200.000000 200.000000"
 preserveAspectRatio="xMidYMid meet">

<g transform="translate(0.000000,200.000000) scale(0.100000,-0.100000)"
fill="currentColor" stroke="none">
<path d="M711 1869 c-75 -15 -129 -68 -146 -146 l-7 -33 442 0 442 0 -7 33
c-18 81 -70 131 -155 147 -63 12 -507 11 -569 -1z"/>
<path d="M461 1619 c-52 -10 -104 -48 -129 -92 -15 -29 -17 -75 -17 -527 0
-551 -2 -530 69 -585 56 -43 110 -46 654 -43 492 3 508 4 547 24 22 11 54 40
70 63 l30 43 3 284 3 284 25 -6 c15 -4 34 0 49 10 24 16 25 21 25 110 0 80 -3
95 -20 111 -12 11 -30 16 -49 13 l-29 -4 -4 98 c-3 89 -6 101 -33 139 -17 23
-48 52 -70 63 -39 20 -54 21 -560 23 -286 1 -540 -3 -564 -8z m735 -323 c12
-19 52 -234 54 -288 0 -5 25 -8 56 -8 30 0 64 -4 74 -10 26 -14 34 -57 15 -86
-15 -23 -21 -24 -120 -24 -117 0 -130 6 -140 68 -17 104 -15 105 -78 -12 -66
-120 -90 -141 -135 -115 -21 11 -34 34 -57 102 -16 48 -32 87 -35 87 -3 0 -12
-15 -20 -33 l-15 -32 -90 0 c-88 0 -90 1 -103 27 -11 23 -11 33 0 55 12 25 20
28 66 31 l52 3 45 88 c24 49 51 91 60 95 53 20 76 -3 113 -114 l28 -83 26 44
c14 24 42 78 63 119 20 41 44 83 53 93 23 25 68 22 88 -7z"/>
<path d="M565 278 c18 -82 70 -132 155 -148 68 -13 492 -13 560 0 85 16 137
66 155 148 l7 32 -442 0 -442 0 7 -32z"/>
</g>
</svg>
