<?xml version="1.0" standalone="no"?>
<!DOCTYPE svg PUBLIC "-//W3C//DTD SVG 20010904//EN"
 "http://www.w3.org/TR/2001/REC-SVG-20010904/DTD/svg10.dtd">
<svg version="1.0" xmlns="http://www.w3.org/2000/svg"
 width="200.000000pt" height="200.000000pt" viewBox="0 0 200.000000 200.000000"
 preserveAspectRatio="xMidYMid meet">

<g transform="translate(0.000000,200.000000) scale(0.100000,-0.100000)"
fill="#000000" stroke="none">
<path d="M720 1871 c-100 -21 -160 -97 -160 -201 l0 -38 -57 -7 c-100 -12
-154 -52 -181 -134 -17 -48 -17 -934 0 -982 27 -82 81 -122 181 -134 l57 -7 0
-38 c0 -79 39 -148 103 -183 41 -21 51 -22 337 -22 286 0 296 1 337 22 64 35
103 104 103 183 l0 38 57 7 c100 12 154 52 181 134 8 22 12 125 12 297 l0 264
29 -6 c21 -5 34 -1 50 15 18 18 21 33 21 109 0 103 -15 128 -70 120 l-30 -5 0
77 c0 158 -55 228 -193 245 l-57 7 0 38 c0 79 -39 148 -103 183 -40 21 -54 22
-312 24 -148 1 -286 -2 -305 -6z m568 -137 c17 -12 22 -25 22 -60 l0 -44 -310
0 -310 0 0 44 c0 75 3 76 310 76 224 0 269 -2 288 -16z m250 -250 l22 -15 0
-469 0 -469 -22 -15 c-20 -14 -88 -16 -538 -16 -450 0 -518 2 -538 16 l-22 15
0 469 0 469 22 15 c20 14 88 16 538 16 450 0 518 -2 538 -16z m-228 -1158 c0
-75 -3 -76 -310 -76 -307 0 -310 1 -310 76 l0 44 310 0 310 0 0 -44z"/>
<path d="M1105 1294 c-9 -9 -44 -71 -77 -138 l-61 -121 -27 88 c-37 116 -61
141 -114 121 -9 -3 -37 -46 -63 -95 l-48 -89 -42 0 c-72 0 -107 -56 -63 -100
16 -16 33 -20 92 -20 83 0 88 2 116 48 l20 34 32 -97 c26 -77 37 -98 56 -105
47 -18 68 2 130 122 l58 113 13 -75 c8 -48 19 -79 30 -87 18 -14 187 -18 218
-7 25 10 37 51 24 77 -17 32 -28 37 -91 37 -65 0 -57 -16 -84 160 -8 58 -22
115 -30 128 -17 27 -65 30 -89 6z"/>
</g>
</svg>
